<?xml version="1.0" encoding="utf-8"?>
<!-- Generator: Adobe Illustrator 14.0.0, SVG Export Plug-In . SVG Version: 6.00 Build 43363)  -->
<!DOCTYPE svg PUBLIC "-//W3C//DTD SVG 1.1//EN" "http://www.w3.org/Graphics/SVG/1.1/DTD/svg11.dtd">
<svg version="1.1" id="Layer_1" xmlns="http://www.w3.org/2000/svg" xmlns:xlink="http://www.w3.org/1999/xlink" x="0px" y="0px"
	 width="612px" height="792px" viewBox="0 0 612 792" enable-background="new 0 0 612 792" xml:space="preserve">
<g>
	<polygon fill-rule="evenodd" clip-rule="evenodd" fill="#FFFFFF" points="209,300 401.744,300 401.744,492.744 209,492.744 
		209,300 	"/>
	<polygon fill-rule="evenodd" clip-rule="evenodd" points="393.248,414.48 393.248,378.264 217.496,378.264 217.496,414.48 
		393.248,414.48 	"/>
	<polygon fill-rule="evenodd" clip-rule="evenodd" fill="#FFFFFF" points="227.36,385.392 238.304,385.392 238.304,392.736 
		238.376,392.736 246.728,385.392 259.04,385.392 248.96,394.392 260.624,406.704 246.728,406.704 238.376,397.992 238.304,397.992 
		238.304,406.704 227.36,406.704 227.36,385.392 	"/>
	<path fill-rule="evenodd" clip-rule="evenodd" fill="#FFFFFF" d="M276.392,384.816c12.456,0,15.84,2.592,15.84,11.304
		s-3.384,11.304-15.84,11.304c-12.384,0-15.768-2.592-15.768-11.304S264.008,384.816,276.392,384.816L276.392,384.816
		L276.392,384.816z M276.392,403.032c4.896,0,4.536-5.4,4.536-7.128c0-1.8,0.072-6.696-4.536-6.696s-4.536,4.896-4.536,6.696
		C271.856,397.632,271.568,403.032,276.392,403.032L276.392,403.032z"/>
	<polygon fill-rule="evenodd" clip-rule="evenodd" fill="#FFFFFF" points="315.848,398.712 315.848,406.849 327.08,406.849 
		327.08,385.536 315.848,385.536 315.848,392.88 307.784,392.88 307.784,385.536 296.552,385.536 296.552,406.849 307.784,406.849 
		307.784,398.712 315.848,398.712 	"/>
	<path fill-rule="evenodd" clip-rule="evenodd" fill="#FFFFFF" d="M332.408,385.536h11.52v16.2c0,0,9.145,0.072,10.368,0.072
		s1.944-1.08,1.944-1.08v6.12h-23.832V385.536L332.408,385.536z"/>
	<path fill-rule="evenodd" clip-rule="evenodd" fill="#FFFFFF" d="M383.024,392.592c-2.377-1.872-4.393-2.448-6.553-2.52
		c-2.16,0-4.104,0.72-4.104,1.944c0,1.08,1.439,1.44,6.552,2.52c4.248,0.864,6.984,2.952,6.984,6.912
		c0,4.392-7.488,6.912-14.185,6.912c-4.752,0-8.352-0.792-11.592-2.232v-5.976c2.016,2.088,6.48,3.168,9.936,3.168
		c1.872,0,2.809-0.288,2.809-1.8c0-0.937-1.152-1.729-4.752-2.376c-6.84-1.225-9.145-3.168-9.145-6.408
		c0-4.752,5.977-7.488,13.32-7.488c3.96,0,7.561,0.072,10.729,1.512V392.592L383.024,392.592z"/>
	<path fill-rule="evenodd" clip-rule="evenodd" fill="#FFFFFF" d="M349.832,394.248l0.792-1.368
		c-2.376-1.152-3.096-4.104-1.872-5.76c1.296-1.8,4.896-2.592,6.84,0.216c1.656,2.376,0.072,4.392-0.647,4.968
		C354.224,392.88,349.832,394.248,349.832,394.248L349.832,394.248z"/>
</g>
</svg>
